# xmcd
#
# Track frame offsets:
#	150
#	11503
#	22965
#	34362
#	45214
#	55470
#	66540
#	79563
#	90043
#	100819
#
# Disc length: 1497 seconds
#
# Revision: 1
# Processed by: cddbd v1.5.2PL0 Copyright (c) Steve Scherf et al.
# Submitted via: audiograbber 1.83.01
#
DISCID=6d05d70a
DTITLE=Patsy Cline - The Best Of
DYEAR=2004
DGENRE=Country
TTITLE0=Walkin' After Midnight
TTITLE1=The Heart You Break May be Your Own
TTITLE2=I've Loved And Lost Again
TTITLE3=Stop Look And Listen
TTITLE4=Walking Dream
TTITLE5=Just Out Of Reach
TTITLE6=If I Could See The World
TTITLE7=Honky Tonk Merry Go Round
TTITLE8=I Cried All The Way To The Altar
TTITLE9=Cry Not For Me
EXTD=
EXTT0=
EXTT1=
EXTT2=
EXTT3=
EXTT4=
EXTT5=
EXTT6=
EXTT7=
EXTT8=
EXTT9=
PLAYORDER=
